<svg width="240" height="259" viewBox="0 0 240 259" fill="none" xmlns="http://www.w3.org/2000/svg">
<path d="M95.6511 117.915H140.445V138.027H95.6511V117.915Z" fill="black"/>
<path d="M128.355 74.6726H154.588C162.925 74.6726 169.125 76.9091 173.19 81.3768C177.265 85.8497 179.308 92.3967 179.308 101.028V154.934C179.308 163.566 177.265 170.118 173.19 174.586C169.125 179.058 162.925 181.29 154.588 181.29H128.355V74.6726ZM144.945 89.9036V166.059H154.277C156.89 166.059 158.948 165.299 160.457 163.775C161.961 162.256 162.717 159.564 162.717 155.709V100.253C162.717 96.3983 161.961 93.7114 160.457 92.1872C158.948 90.6683 156.89 89.9036 154.277 89.9036H144.945Z" fill="black"/>
<path d="M112.086 180.242H86.1227C77.8587 180.242 71.7099 178.027 67.6868 173.601C63.6533 169.17 61.6313 162.686 61.6313 154.138V100.756C61.6313 92.2082 63.6533 85.7188 67.6868 81.293C71.7099 76.8776 77.8587 74.6726 86.1227 74.6726H112.086V180.242ZM95.662 165.158V89.757H86.413C83.8311 89.757 81.7885 90.5112 80.2953 92.0196C78.8022 93.5281 78.0557 96.1888 78.0557 100.002V154.892C78.0557 158.716 78.8022 161.387 80.2953 162.895C81.7885 164.404 83.8311 165.158 86.413 165.158H95.662Z" fill="black"/>
<path d="M229 190H12L120.5 0L229 190ZM22.0267 184.165H218.973L120.5 11.7166L22.0267 184.165Z" fill="black"/>
<path d="M9.05267 226.761H20.758V235.059H9.05267V259H0V201H23.979V209.298H9.05267V226.761Z" fill="black"/>
<path d="M28.0222 201H37.0144V259H28.0222V201Z" fill="black"/>
<path d="M43.4995 201H52.5522V250.723H67.4786V259H43.4995V201Z" fill="black"/>
<path d="M71.2776 201H80.2697V259H71.2776V201Z" fill="black"/>
<path d="M99.3811 201H113.792C118.363 201 121.759 202.222 123.992 204.662C126.235 207.091 127.357 210.647 127.357 215.331V244.669C127.357 249.369 126.235 252.935 123.992 255.359C121.759 257.788 118.363 259 113.792 259H99.3811V201ZM108.481 209.298V250.723H113.623C115.062 250.723 116.189 250.311 117.009 249.474C117.839 248.644 118.257 247.178 118.257 245.072V214.928C118.257 212.828 117.839 211.367 117.009 210.547C116.189 209.716 115.062 209.298 113.623 209.298H108.481Z" fill="black"/>
<path d="M132.617 209.646V201H141.609V208.75L137.547 217.792H133.703L136.179 209.646H132.617Z" fill="black"/>
<path d="M156.238 244.318C156.238 246.377 156.665 247.826 157.521 248.665C158.387 249.493 159.553 249.906 161.007 249.906C162.461 249.906 163.616 249.493 164.472 248.665C165.338 247.826 165.777 246.377 165.777 244.318V213.682C165.777 211.643 165.338 210.2 164.472 209.356C163.616 208.518 162.461 208.094 161.007 208.094C159.553 208.094 158.387 208.518 157.521 209.356C156.665 210.2 156.238 211.643 156.238 213.682V244.318ZM147.019 214.262C147.019 209.667 148.217 206.143 150.612 203.685C153.019 201.232 156.483 200 161.007 200C165.525 200 168.985 201.232 171.38 203.685C173.786 206.143 174.995 209.667 174.995 214.262V243.738C174.995 248.333 173.786 251.863 171.38 254.315C168.985 256.774 165.525 258 161.007 258C156.483 258 153.019 256.774 150.612 254.315C148.217 251.863 147.019 248.333 147.019 243.738V214.262Z" fill="black"/>
<path d="M198.844 259C198.729 258.619 198.62 258.27 198.51 257.942C198.395 257.603 198.301 257.19 198.217 256.693C198.144 256.185 198.097 255.55 198.071 254.788C198.04 254.015 198.029 253.041 198.029 251.866V242.764C198.029 240.055 197.559 238.15 196.628 237.049C195.708 235.948 194.208 235.398 192.133 235.398H189.018V259H180.027V201H193.596C198.29 201 201.688 202.111 203.779 204.323C205.88 206.525 206.936 209.864 206.936 214.336V218.908C206.936 224.867 204.971 228.783 201.04 230.656C203.34 231.603 204.908 233.143 205.744 235.271C206.591 237.388 207.02 239.97 207.02 243.018V251.951C207.02 253.391 207.072 254.655 207.187 255.74C207.297 256.814 207.569 257.899 208.002 259H198.844ZM189.018 209.298V227.1H192.53C194.229 227.1 195.551 226.666 196.503 225.788C197.465 224.899 197.945 223.29 197.945 220.961V215.246C197.945 213.161 197.574 211.647 196.837 210.716C196.095 209.774 194.94 209.298 193.366 209.298H189.018Z" fill="black"/>
<path d="M221.243 244.318C221.243 246.377 221.67 247.826 222.526 248.665C223.392 249.493 224.558 249.906 226.012 249.906C227.467 249.906 228.622 249.493 229.477 248.665C230.343 247.826 230.782 246.377 230.782 244.318V213.682C230.782 211.643 230.343 210.2 229.477 209.356C228.622 208.518 227.467 208.094 226.012 208.094C224.558 208.094 223.392 208.518 222.526 209.356C221.67 210.2 221.243 211.643 221.243 213.682V244.318ZM212.024 214.262C212.024 209.667 213.222 206.143 215.618 203.685C218.024 201.232 221.489 200 226.012 200C230.53 200 233.99 201.232 236.385 203.685C238.792 206.143 240 209.667 240 214.262V243.738C240 248.333 238.792 251.863 236.385 254.315C233.99 256.774 230.53 258 226.012 258C221.489 258 218.024 256.774 215.618 254.315C213.222 251.863 212.024 248.333 212.024 243.738V214.262Z" fill="black"/>
</svg>
